<svg width="26" height="24" viewBox="0 0 26 24" fill="none" xmlns="http://www.w3.org/2000/svg">
<g clip-path="url(#clip0_5_2255)">
<path d="M0 12.4098L5.12408 16.8343V7.98535L0 12.4098Z" fill="url(#paint0_linear_5_2255)"/>
<path d="M6.50005 23.5001L12.9518 21.341L5.17236 16.9165L6.50005 23.5001Z" fill="url(#paint1_linear_5_2255)"/>
<path d="M19.5 23.5002L20.8277 16.9165L13.0482 21.341L19.5 23.5002Z" fill="url(#paint2_linear_5_2255)"/>
<path d="M26.0001 12.4098L20.876 7.98535V16.8343L26.0001 12.4098Z" fill="url(#paint3_linear_5_2255)"/>
<path d="M19.5 1.31934L13.0482 3.47843L20.8277 7.90291L19.5 1.31934Z" fill="url(#paint4_linear_5_2255)"/>
<path d="M6.50005 1.31934L5.17236 7.90304L12.9518 3.47856L6.50005 1.31934Z" fill="url(#paint5_linear_5_2255)"/>
<path d="M0 12.4097L5.12421 16.8341V12.4097H0Z" fill="url(#paint6_linear_5_2255)"/>
<path d="M6.5 23.5002L12.9518 21.3411L9.06204 19.1289L6.5 23.5002Z" fill="url(#paint7_linear_5_2255)"/>
<path d="M19.5 23.5001L20.8277 16.9165L16.938 19.1287L19.5 23.5001Z" fill="url(#paint8_linear_5_2255)"/>
<path d="M25.9999 12.4098L20.8757 7.98535V12.4098H25.9999Z" fill="url(#paint9_linear_5_2255)"/>
<path d="M19.5 1.31934L13.0482 3.47843L16.9379 5.69067L19.5 1.31934Z" fill="url(#paint10_linear_5_2255)"/>
<path d="M6.50005 1.31934L5.17236 7.90291L9.06209 5.69067L6.50005 1.31934Z" fill="url(#paint11_linear_5_2255)"/>
<path d="M13 21.5787C18.1406 21.5787 22.3079 17.4736 22.3079 12.4097C22.3079 7.34582 18.1406 3.24072 13 3.24072C7.85941 3.24072 3.69214 7.34582 3.69214 12.4097C3.69214 17.4736 7.85941 21.5787 13 21.5787Z" fill="url(#paint12_linear_5_2255)"/>
<path d="M13 19.6979C17.0861 19.6979 20.3986 16.4349 20.3986 12.4097C20.3986 8.3846 17.0861 5.12158 13 5.12158C8.91389 5.12158 5.60144 8.3846 5.60144 12.4097C5.60144 16.4349 8.91389 19.6979 13 19.6979Z" fill="url(#paint13_linear_5_2255)"/>
<path d="M13.0001 18.2874C16.2953 18.2874 18.9667 15.6559 18.9667 12.4098C18.9667 9.16371 16.2953 6.53223 13.0001 6.53223C9.70479 6.53223 7.03345 9.16371 7.03345 12.4098C7.03345 15.6559 9.70479 18.2874 13.0001 18.2874Z" fill="url(#paint14_linear_5_2255)"/>
<g filter="url(#filter0_d_5_2255)">
<path d="M11.05 14.3923H12.4018V10.8276H11.2297V9.90056C11.9142 9.77429 12.359 9.60563 12.8037 9.33594H13.9246V14.3923H15.0709V15.6059H11.05V14.3923Z" fill="#E5920E"/>
</g>
</g>
<defs>
<filter id="filter0_d_5_2255" x="10.05" y="9.33594" width="6.02087" height="8.27002" filterUnits="userSpaceOnUse" color-interpolation-filters="sRGB">
<feFlood flood-opacity="0" result="BackgroundImageFix"/>
<feColorMatrix in="SourceAlpha" type="matrix" values="0 0 0 0 0 0 0 0 0 0 0 0 0 0 0 0 0 0 127 0" result="hardAlpha"/>
<feOffset dy="1"/>
<feGaussianBlur stdDeviation="0.5"/>
<feComposite in2="hardAlpha" operator="out"/>
<feColorMatrix type="matrix" values="0 0 0 0 0 0 0 0 0 0 0 0 0 0 0 0 0 0 0.25 0"/>
<feBlend mode="normal" in2="BackgroundImageFix" result="effect1_dropShadow_5_2255"/>
<feBlend mode="normal" in="SourceGraphic" in2="effect1_dropShadow_5_2255" result="shape"/>
</filter>
<linearGradient id="paint0_linear_5_2255" x1="2.98059" y1="13.6298" x2="5.24763" y2="8.09136" gradientUnits="userSpaceOnUse">
<stop offset="0.2852" stop-color="#EFA716"/>
<stop offset="0.8758" stop-color="#FFD757"/>
</linearGradient>
<linearGradient id="paint1_linear_5_2255" x1="8.2669" y1="20.5907" x2="5.4632" y2="16.967" gradientUnits="userSpaceOnUse">
<stop stop-color="#EFA716"/>
<stop offset="1" stop-color="#FFD757"/>
</linearGradient>
<linearGradient id="paint2_linear_5_2255" x1="15.6095" y1="22.7721" x2="18.1597" y2="21.2927" gradientUnits="userSpaceOnUse">
<stop stop-color="#FFD757"/>
<stop offset="1" stop-color="#EFA716"/>
</linearGradient>
<linearGradient id="paint3_linear_5_2255" x1="23.2198" y1="12.6151" x2="22.9965" y2="15.1663" gradientUnits="userSpaceOnUse">
<stop stop-color="#EFA716"/>
<stop offset="1" stop-color="#FFD757"/>
</linearGradient>
<linearGradient id="paint4_linear_5_2255" x1="17.296" y1="8.36223" x2="16.5337" y2="2.50073" gradientUnits="userSpaceOnUse">
<stop offset="0.1242" stop-color="#FFD757"/>
<stop offset="0.7148" stop-color="#EFA716"/>
</linearGradient>
<linearGradient id="paint5_linear_5_2255" x1="5.17242" y1="4.61121" x2="12.9518" y2="4.61121" gradientUnits="userSpaceOnUse">
<stop offset="0.2852" stop-color="#EFA716"/>
<stop offset="0.8758" stop-color="#FFD757"/>
</linearGradient>
<linearGradient id="paint6_linear_5_2255" x1="1.6864e-05" y1="14.6219" x2="5.12414" y2="14.6219" gradientUnits="userSpaceOnUse">
<stop stop-color="#FEF7A5"/>
<stop offset="1" stop-color="#F1CD59"/>
</linearGradient>
<linearGradient id="paint7_linear_5_2255" x1="6.50001" y1="21.3146" x2="12.9518" y2="21.3146" gradientUnits="userSpaceOnUse">
<stop stop-color="#FEF7A5"/>
<stop offset="1" stop-color="#F1CD59"/>
</linearGradient>
<linearGradient id="paint8_linear_5_2255" x1="16.9379" y1="20.2083" x2="20.8277" y2="20.2083" gradientUnits="userSpaceOnUse">
<stop stop-color="#FEF7A5"/>
<stop offset="1" stop-color="#F1CD59"/>
</linearGradient>
<linearGradient id="paint9_linear_5_2255" x1="19.8918" y1="9.62432" x2="25.8775" y2="13.2182" gradientUnits="userSpaceOnUse">
<stop offset="0.2895" stop-color="#F1CD59"/>
<stop offset="1" stop-color="#FEF7A5"/>
</linearGradient>
<linearGradient id="paint10_linear_5_2255" x1="13.6967" y1="5.09062" x2="20.7403" y2="2.2571" gradientUnits="userSpaceOnUse">
<stop offset="0.2261" stop-color="#F1CD59"/>
<stop offset="1" stop-color="#FEF7A5"/>
</linearGradient>
<linearGradient id="paint11_linear_5_2255" x1="8.36161" y1="2.29165" x2="6.02481" y2="7.32491" gradientUnits="userSpaceOnUse">
<stop stop-color="#FEF7A5"/>
<stop offset="1" stop-color="#F1CD59"/>
</linearGradient>
<linearGradient id="paint12_linear_5_2255" x1="13" y1="21.5787" x2="13" y2="3.24076" gradientUnits="userSpaceOnUse">
<stop stop-color="#FFA517"/>
<stop offset="1" stop-color="#FFCE42"/>
</linearGradient>
<linearGradient id="paint13_linear_5_2255" x1="13" y1="19.6979" x2="13" y2="5.12161" gradientUnits="userSpaceOnUse">
<stop offset="0.008" stop-color="#F8C200"/>
<stop offset="1" stop-color="#F8D926"/>
</linearGradient>
<linearGradient id="paint14_linear_5_2255" x1="13.0001" y1="18.2873" x2="13.0001" y2="6.53228" gradientUnits="userSpaceOnUse">
<stop stop-color="#FEDB33"/>
<stop offset="1" stop-color="#FFF83D"/>
</linearGradient>
<clipPath id="clip0_5_2255">
<rect width="26" height="23" fill="white" transform="translate(0 0.5)"/>
</clipPath>
</defs>
</svg>
