<svg width="38" height="38" viewBox="0 0 38 38" fill="none" xmlns="http://www.w3.org/2000/svg">
<circle cx="19" cy="19" r="19" fill="white" fill-opacity="0.31"/>
<circle cx="19" cy="19" r="15" fill="white"/>
<g clip-path="url(#clip0_5_1332)">
<g clip-path="url(#clip1_5_1332)">
<path d="M21.9106 18.993H27.4122C27.7424 18.993 28.0219 18.7223 28.0001 18.4024C27.815 15.7375 26.3888 13.4032 24.2803 11.9266C24.0118 11.7403 23.6307 11.8246 23.4565 12.0953L20.5388 16.6094C21.359 17.1121 21.9106 17.9875 21.9106 18.993ZM20.5388 21.3731C20.0924 21.6438 19.5662 21.809 19.0001 21.809C18.434 21.809 17.9114 21.6438 17.4614 21.3731L14.5436 25.8907C14.3694 26.1614 14.4565 26.527 14.7469 26.6782C16.0134 27.3391 17.4614 27.7188 19.0001 27.7188C20.5388 27.7188 21.9868 27.3391 23.2533 26.6782C23.5436 26.527 23.6307 26.1579 23.4565 25.8907L20.5388 21.3731ZM19.0001 20.6805C19.9618 20.6805 20.742 19.9246 20.742 18.993C20.742 18.0614 19.9618 17.3055 19.0001 17.3055C18.0384 17.3055 17.2582 18.0614 17.2582 18.993C17.2582 19.9246 18.0384 20.6805 19.0001 20.6805ZM10.588 18.993H16.0896C16.0896 17.9875 16.6412 17.1121 17.4614 16.6129L14.5436 12.0989C14.3694 11.8282 13.9884 11.7403 13.7199 11.9301C11.6114 13.4067 10.1852 15.7411 10.0001 18.4059C9.97832 18.7223 10.2578 18.993 10.588 18.993Z" fill="#212121"/>
</g>
</g>
<defs>
<clipPath id="clip0_5_1332">
<rect width="18" height="18" fill="white" transform="translate(10 10)"/>
</clipPath>
<clipPath id="clip1_5_1332">
<rect width="18" height="18" fill="white" transform="translate(10 10)"/>
</clipPath>
</defs>
</svg>
