<svg width="168" height="68" viewBox="0 0 168 68" fill="none" xmlns="http://www.w3.org/2000/svg">
<mask id="mask0_1_1063" style="mask-type:alpha" maskUnits="userSpaceOnUse" x="4" y="0" width="160" height="60">
<rect width="156" height="56" transform="matrix(-1 0 0 1 162 2)" fill="black" shape-rendering="crispEdges"/>
<rect x="1" y="-1" width="158" height="58" transform="matrix(-1 0 0 1 164 2)" stroke="black" stroke-opacity="0.28" stroke-width="2" shape-rendering="crispEdges"/>
</mask>
<g mask="url(#mask0_1_1063)">
<g filter="url(#filter0_d_1_1063)">
<rect width="156" height="56" transform="matrix(-1 0 0 1 162 2)" fill="url(#paint0_radial_1_1063)" fill-opacity="0.95" shape-rendering="crispEdges"/>
<rect x="1" y="-1" width="158" height="58" transform="matrix(-1 0 0 1 164 2)" stroke="black" stroke-opacity="0.28" stroke-width="2" shape-rendering="crispEdges"/>
</g>
<circle cx="73" cy="73" r="73" transform="matrix(-1 0 0 1 101 56)" fill="#FF274E" fill-opacity="0.06"/>
<circle cx="86" cy="86" r="86" transform="matrix(-1 0 0 1 123 37)" fill="#FF274E" fill-opacity="0.06"/>
<circle cx="103" cy="103" r="103" transform="matrix(-1 0 0 1 139 19)" fill="#FF274E" fill-opacity="0.06"/>
<circle cx="73" cy="73" r="73" transform="matrix(-1 0 0 1 292 -110)" fill="#FF274E" fill-opacity="0.06"/>
<circle cx="86" cy="86" r="86" transform="matrix(-1 0 0 1 308 -119)" fill="#FF274E" fill-opacity="0.06"/>
<circle cx="103" cy="103" r="103" transform="matrix(-1 0 0 1 324 -137)" fill="#FF274E" fill-opacity="0.06"/>
</g>
<defs>
<filter id="filter0_d_1_1063" x="0" y="0" width="168" height="68" filterUnits="userSpaceOnUse" color-interpolation-filters="sRGB">
<feFlood flood-opacity="0" result="BackgroundImageFix"/>
<feColorMatrix in="SourceAlpha" type="matrix" values="0 0 0 0 0 0 0 0 0 0 0 0 0 0 0 0 0 0 127 0" result="hardAlpha"/>
<feOffset dy="4"/>
<feGaussianBlur stdDeviation="2"/>
<feComposite in2="hardAlpha" operator="out"/>
<feColorMatrix type="matrix" values="0 0 0 0 0 0 0 0 0 0 0 0 0 0 0 0 0 0 0.25 0"/>
<feBlend mode="normal" in2="BackgroundImageFix" result="effect1_dropShadow_1_1063"/>
<feBlend mode="normal" in="SourceGraphic" in2="effect1_dropShadow_1_1063" result="shape"/>
</filter>
<radialGradient id="paint0_radial_1_1063" cx="0" cy="0" r="1" gradientUnits="userSpaceOnUse" gradientTransform="translate(78 28) rotate(90) scale(28 50.6849)">
<stop stop-color="#04040B" stop-opacity="0.94"/>
<stop offset="1" stop-color="#04040B" stop-opacity="0.97"/>
</radialGradient>
</defs>
</svg>
