<svg width="138" height="50" viewBox="0 0 138 50" fill="none" xmlns="http://www.w3.org/2000/svg">
<path d="M79.88 19.46C79.9067 19.5133 79.92 19.58 79.92 19.66C79.92 19.8867 79.7667 20 79.46 20H77.36C77.2133 20 77.1 19.9733 77.02 19.92C76.94 19.8667 76.8733 19.7733 76.82 19.64L75.84 17.14H69.88L68.9 19.64C68.8467 19.7733 68.78 19.8667 68.7 19.92C68.62 19.9733 68.5133 20 68.38 20H66.24C65.9333 20 65.78 19.8867 65.78 19.66C65.78 19.58 65.8 19.5 65.84 19.42L71.06 6.36C71.1533 6.12 71.3333 6 71.6 6H74.12C74.2667 6 74.38 6.02667 74.46 6.08C74.54 6.13333 74.6067 6.22667 74.66 6.36L79.88 19.46ZM72.8 9.38L70.8 14.54H74.92L72.92 9.38H72.8ZM93.3314 19.38C93.4114 19.4733 93.4514 19.5733 93.4514 19.68C93.4514 19.7733 93.4181 19.8533 93.3514 19.92C93.2981 19.9733 93.2114 20 93.0914 20H90.4914C90.3447 20 90.2247 19.98 90.1314 19.94C90.0381 19.8867 89.9447 19.8067 89.8514 19.7L85.7114 14.7H84.4914V19.6C84.4914 19.8667 84.3581 20 84.0914 20H81.7914C81.5247 20 81.3914 19.8667 81.3914 19.6V6.4C81.3914 6.13333 81.5247 6 81.7914 6H89.9514C91.1247 6 91.9714 6.26667 92.4914 6.8C93.0247 7.32 93.2914 8.16667 93.2914 9.34V11.34C93.2914 12.5133 93.0247 13.3667 92.4914 13.9C91.9714 14.4333 91.1247 14.7 89.9514 14.7H89.4114V14.78L93.3314 19.38ZM84.4914 8.54V12.3H88.9914C89.4314 12.3 89.7381 12.2133 89.9114 12.04C90.0981 11.8533 90.1914 11.54 90.1914 11.1V9.74C90.1914 9.3 90.0981 8.99333 89.9114 8.82C89.7381 8.63333 89.4314 8.54 88.9914 8.54H84.4914ZM106.535 17.4C106.802 17.4 106.935 17.5333 106.935 17.8V19.6C106.935 19.8667 106.802 20 106.535 20H96.6352C96.3685 20 96.2352 19.8667 96.2352 19.6V6.4C96.2352 6.13333 96.3685 6 96.6352 6H106.335C106.602 6 106.735 6.13333 106.735 6.4V8.2C106.735 8.46667 106.602 8.6 106.335 8.6H99.3352V11.7H104.235C104.502 11.7 104.635 11.8333 104.635 12.1V13.8C104.635 14.0667 104.502 14.2 104.235 14.2H99.3352V17.4H106.535ZM109.897 20C109.63 20 109.497 19.8667 109.497 19.6V6.4C109.497 6.13333 109.63 6 109.897 6H112.937C113.084 6 113.197 6.02667 113.277 6.08C113.37 6.13333 113.45 6.22 113.517 6.34L118.797 15.48H118.957V6.4C118.957 6.13333 119.09 6 119.357 6H121.597C121.864 6 121.997 6.13333 121.997 6.4V19.6C121.997 19.8667 121.864 20 121.597 20H118.557C118.41 20 118.29 19.9733 118.197 19.92C118.117 19.8667 118.044 19.7733 117.977 19.64L112.697 10.5H112.557V19.6C112.557 19.8667 112.424 20 112.157 20H109.897ZM137.575 19.46C137.602 19.5133 137.615 19.58 137.615 19.66C137.615 19.8867 137.462 20 137.155 20H135.055C134.909 20 134.795 19.9733 134.715 19.92C134.635 19.8667 134.569 19.7733 134.515 19.64L133.535 17.14H127.575L126.595 19.64C126.542 19.7733 126.475 19.8667 126.395 19.92C126.315 19.9733 126.209 20 126.075 20H123.935C123.629 20 123.475 19.8867 123.475 19.66C123.475 19.58 123.495 19.5 123.535 19.42L128.755 6.36C128.849 6.12 129.029 6 129.295 6H131.815C131.962 6 132.075 6.02667 132.155 6.08C132.235 6.13333 132.302 6.22667 132.355 6.36L137.575 19.46ZM130.495 9.38L128.495 14.54H132.615L130.615 9.38H130.495Z" fill="white"/>
<path d="M73.364 38.182C73.364 38.518 73.3033 38.854 73.182 39.19C73.0607 39.526 72.8833 39.8293 72.65 40.1C72.4167 40.3613 72.132 40.576 71.796 40.744C71.4693 40.912 71.0913 40.996 70.662 40.996H67.736V45H66.756V35.354H70.662C71.1193 35.354 71.516 35.438 71.852 35.606C72.1973 35.774 72.482 35.9933 72.706 36.264C72.93 36.5253 73.0933 36.8287 73.196 37.174C73.308 37.51 73.364 37.846 73.364 38.182ZM72.37 38.182C72.37 37.8927 72.3187 37.6313 72.216 37.398C72.1227 37.1553 71.9873 36.95 71.81 36.782C71.642 36.614 71.4413 36.4833 71.208 36.39C70.9747 36.2967 70.7273 36.25 70.466 36.25H67.736V40.072H70.466C70.7273 40.072 70.9747 40.03 71.208 39.946C71.4413 39.8527 71.642 39.7267 71.81 39.568C71.9873 39.4093 72.1227 39.2133 72.216 38.98C72.3187 38.7467 72.37 38.4807 72.37 38.182ZM101.87 43.516C102.056 42.9 102.243 42.284 102.43 41.668C102.626 41.0427 102.817 40.422 103.004 39.806L104.432 35.354H105.496C104.964 36.978 104.436 38.588 103.914 40.184C103.4 41.7707 102.882 43.376 102.36 45H101.268L98.1315 35.354H99.2095C99.4522 36.1193 99.6902 36.88 99.9235 37.636C100.166 38.392 100.409 39.1527 100.652 39.918L101.8 43.516H101.87ZM137.509 38.182C137.509 38.518 137.448 38.854 137.327 39.19C137.206 39.526 137.028 39.8293 136.795 40.1C136.562 40.3613 136.277 40.576 135.941 40.744C135.614 40.912 135.236 40.996 134.807 40.996H131.881V45H130.901V35.354H134.807C135.264 35.354 135.661 35.438 135.997 35.606C136.342 35.774 136.627 35.9933 136.851 36.264C137.075 36.5253 137.238 36.8287 137.341 37.174C137.453 37.51 137.509 37.846 137.509 38.182ZM136.515 38.182C136.515 37.8927 136.464 37.6313 136.361 37.398C136.268 37.1553 136.132 36.95 135.955 36.782C135.787 36.614 135.586 36.4833 135.353 36.39C135.12 36.2967 134.872 36.25 134.611 36.25H131.881V40.072H134.611C134.872 40.072 135.12 40.03 135.353 39.946C135.586 39.8527 135.787 39.7267 135.955 39.568C136.132 39.4093 136.268 39.2133 136.361 38.98C136.464 38.7467 136.515 38.4807 136.515 38.182Z" fill="white"/>
<path d="M13.0859 45.0002H10.7949L16.0752 35.5717C16.2417 35.2744 16.4649 35.0126 16.7322 34.8013L17.1814 34.5325C17.3909 34.4073 17.6151 34.3085 17.8489 34.2386C18.1225 34.1568 18.4065 34.1152 18.6921 34.1152H23.6589L23.0742 34.3439C22.6595 34.5547 22.2966 34.8546 22.0113 35.222L21.9366 35.3183C21.8255 35.4612 21.7252 35.6122 21.6362 35.7698L18.2614 41.753L18.0646 42.0103C17.5686 42.6588 16.9838 43.2342 16.3273 43.7196L16.0866 43.9C15.6791 44.2053 15.2333 44.4555 14.7605 44.6444L14.5979 44.7094C14.3422 44.8115 14.0768 44.8875 13.8058 44.9361C13.5682 44.9787 13.3273 45.0002 13.0859 45.0002Z" fill="#E2C8FF"/>
<mask id="mask0_5_1582" style="mask-type:alpha" maskUnits="userSpaceOnUse" x="0" y="2" width="50" height="43">
<path d="M14.3747 14.0956L7.37657 2L8.45607 2.89958C8.93404 3.37755 9.46883 3.7951 10.0485 4.14288L10.3002 4.29393C10.8679 4.65245 11.4768 4.94101 12.1137 5.15332L12.2343 5.19351L13.4487 5.46339C14.0763 5.61281 14.7192 5.68828 15.3643 5.68828H37.2489C38.1111 5.68828 38.97 5.79403 39.8065 6.00314L40.0356 6.08646C40.5407 6.27014 41.022 6.51365 41.4692 6.81178C41.7397 6.99212 41.9968 7.1918 42.2385 7.40928L42.3349 7.49608C42.6279 7.75976 42.8988 8.04692 43.1451 8.35471C43.3779 8.6457 43.5878 8.95422 43.7731 9.27753L47.9027 16.4833C48.2617 17.0218 48.5678 17.5937 48.8167 18.1911L48.8923 18.3724L48.9366 18.5319C49.0564 18.9633 49.1172 19.409 49.1172 19.8567C49.1172 20.334 49.0488 20.8089 48.9141 21.2668L48.8923 21.341C48.7129 21.8792 48.4766 22.3968 48.1875 22.8849L42.6122 32.2983C42.4813 32.5193 42.3274 32.7259 42.1532 32.9147C41.9686 33.1146 41.7624 33.2933 41.5382 33.4474L41.4176 33.5303C41.2435 33.65 41.0581 33.7522 40.8639 33.8354C40.6395 33.9316 40.4048 34.0018 40.1644 34.0447L39.8159 34.107C39.4505 34.1722 39.0801 34.205 38.7089 34.205H18.4414C18.1177 34.205 17.8 34.293 17.5224 34.4596L17.4969 34.4749L17.1691 34.6514C16.9984 34.7433 16.8396 34.8557 16.6962 34.9861C16.5115 35.154 16.3543 35.3499 16.2304 35.5667L10.84 45L0 44.8651L9.98536 27.6381L10.5701 26.6485L10.9749 25.8839L11.3797 25.2542C11.7384 24.8058 12.1457 24.3985 12.5941 24.0397L12.8778 23.8448C13.1677 23.6454 13.4772 23.4762 13.8015 23.3396L13.9712 23.2682C14.1025 23.2129 14.2378 23.1678 14.376 23.1333C14.5966 23.0781 14.8232 23.0502 15.0506 23.0502H15.3828H29.4613H30.5408L33.8137 23.059C34.3675 23.0604 34.9097 22.8969 35.3706 22.5897C35.7696 22.3237 36.0937 21.959 36.3108 21.5314C36.5094 21.1401 36.613 20.7075 36.613 20.2687V19.9916V19.57C36.613 19.1971 36.5217 18.8298 36.3472 18.5001C36.2549 18.3257 36.1404 18.164 36.0065 18.019L35.9012 17.905C35.7464 17.7372 35.5754 17.5851 35.3908 17.4508L35.1736 17.2929L34.499 16.9331C34.1697 16.7834 33.8284 16.6619 33.4786 16.5698L33.1496 16.4833C32.5814 16.3636 32.0023 16.3033 31.4216 16.3033H31.3954H30.5408H17.9017C17.4254 16.3033 16.9525 16.2224 16.5034 16.0638L16.4174 16.0335L16.2464 15.948C15.9413 15.7954 15.6521 15.6132 15.3828 15.4038L15.023 15.0439C14.7835 14.7445 14.5668 14.4275 14.3747 14.0956Z" fill="url(#paint0_linear_5_1582)"/>
</mask>
<g mask="url(#mask0_5_1582)">
<path d="M14.3747 14.0956L7.37657 2L8.45607 2.89958C8.93404 3.37755 9.46883 3.7951 10.0485 4.14288L10.3002 4.29393C10.8679 4.65245 11.4768 4.94101 12.1137 5.15332L12.2343 5.19351L13.4487 5.46339C14.0763 5.61281 14.7192 5.68828 15.3643 5.68828H37.2489C38.1111 5.68828 38.97 5.79403 39.8065 6.00314L40.0356 6.08646C40.5407 6.27014 41.022 6.51365 41.4692 6.81178C41.7397 6.99212 41.9968 7.1918 42.2385 7.40928L42.3349 7.49608C42.6279 7.75976 42.8988 8.04692 43.1451 8.35471C43.3779 8.6457 43.5878 8.95422 43.7731 9.27753L47.9027 16.4833C48.2617 17.0218 48.5678 17.5937 48.8167 18.1911L48.8923 18.3724L48.9366 18.5319C49.0564 18.9633 49.1172 19.409 49.1172 19.8567C49.1172 20.334 49.0488 20.8089 48.9141 21.2668L48.8923 21.341C48.7129 21.8792 48.4766 22.3968 48.1875 22.8849L42.6122 32.2983C42.4813 32.5193 42.3274 32.7259 42.1532 32.9147C41.9686 33.1146 41.7624 33.2933 41.5382 33.4474L41.4176 33.5303C41.2435 33.65 41.0581 33.7522 40.8639 33.8354C40.6395 33.9316 40.4048 34.0018 40.1644 34.0447L39.8159 34.107C39.4505 34.1722 39.0801 34.205 38.7089 34.205H18.4414C18.1177 34.205 17.8 34.293 17.5224 34.4596L17.4969 34.4749L17.1691 34.6514C16.9984 34.7433 16.8396 34.8557 16.6962 34.9861C16.5115 35.154 16.3543 35.3499 16.2304 35.5667L10.84 45L0 44.8651L9.98536 27.6381L10.5701 26.6485L10.9749 25.8839L11.3797 25.2542C11.7384 24.8058 12.1457 24.3985 12.5941 24.0397L12.8778 23.8448C13.1677 23.6454 13.4772 23.4762 13.8015 23.3396L13.9712 23.2682C14.1025 23.2129 14.2378 23.1678 14.376 23.1333C14.5966 23.0781 14.8232 23.0502 15.0506 23.0502H15.3828H29.4613H30.5408L33.8137 23.059C34.3675 23.0604 34.9097 22.8969 35.3706 22.5897C35.7696 22.3237 36.0937 21.959 36.3108 21.5314C36.5094 21.1401 36.613 20.7075 36.613 20.2687V19.9916V19.57C36.613 19.1971 36.5217 18.8298 36.3472 18.5001C36.2549 18.3257 36.1404 18.164 36.0065 18.019L35.9012 17.905C35.7464 17.7372 35.5754 17.5851 35.3908 17.4508L35.1736 17.2929L34.499 16.9331C34.1697 16.7834 33.8284 16.6619 33.4786 16.5698L33.1496 16.4833C32.5814 16.3636 32.0023 16.3033 31.4216 16.3033H31.3954H30.5408H17.9017C17.4254 16.3033 16.9525 16.2224 16.5034 16.0638L16.4174 16.0335L16.2464 15.948C15.9413 15.7954 15.6521 15.6132 15.3828 15.4038L15.023 15.0439C14.7835 14.7445 14.5668 14.4275 14.3747 14.0956Z" fill="#2AA2FF"/>
<path d="M6.07219 0.965332L20.2602 6.86062C21.5564 7.39923 22.5399 8.49465 22.9363 9.84122C23.6546 12.2817 25.3663 14.3074 27.6526 15.4229L29.6412 16.3932L5.84729 19.6317L6.07219 0.965332Z" fill="white" fill-opacity="0.46"/>
</g>
<defs>
<linearGradient id="paint0_linear_5_1582" x1="24.5586" y1="2" x2="24.5586" y2="45" gradientUnits="userSpaceOnUse">
<stop stop-color="#FFF739"/>
<stop offset="1" stop-color="#FFCC49"/>
</linearGradient>
</defs>
</svg>
