<svg width="43" height="43" viewBox="0 0 43 43" fill="none" xmlns="http://www.w3.org/2000/svg">
<path d="M34.0417 5.375H8.95833C8.00797 5.375 7.09654 5.75253 6.42453 6.42453C5.75253 7.09654 5.375 8.00797 5.375 8.95833V34.0417C5.375 34.992 5.75253 35.9035 6.42453 36.5755C7.09654 37.2475 8.00797 37.625 8.95833 37.625H34.0417C34.992 37.625 35.9035 37.2475 36.5755 36.5755C37.2475 35.9035 37.625 34.992 37.625 34.0417V8.95833C37.625 8.00797 37.2475 7.09654 36.5755 6.42453C35.9035 5.75253 34.992 5.375 34.0417 5.375ZM27.95 30.4583L21.5 24.0083L15.05 30.4583L12.5417 27.95L18.9917 21.5L12.5417 15.05L15.05 12.5417L21.5 18.9917L27.95 12.5417L30.4583 15.05L24.0083 21.5L30.4583 27.95L27.95 30.4583Z" fill="#FF4E4E"/>
</svg>
