<svg viewBox="0 0 14 14" fill="none" xmlns="http://www.w3.org/2000/svg">
<g id="group_svgrepo.com" clip-path="url(#clip0_534_3)">
<path id="Vector" fill-rule="evenodd" clip-rule="evenodd" d="M13.1765 9.26068C12.6758 9.61398 11.8004 10.1106 10.6688 10.4169C10.5313 9.66916 9.9927 9.05068 9.23918 8.81928C8.57047 8.6134 7.88942 8.4668 7.20094 8.36963C7.72553 7.92657 8.08788 7.30645 8.19247 6.59657C8.35223 6.5908 8.51941 6.58751 8.71047 6.58751C9.92106 6.5941 11.1251 6.7794 12.2904 7.13763C12.8199 7.30068 13.1765 7.77751 13.1765 8.32516V9.26068ZM9.88235 11.7313C9.04977 12.3201 7.47435 13.1757 5.35294 13.1757C4.40918 13.1757 2.58835 12.9847 0.823528 11.7313V10.7925C0.823528 10.2456 1.18094 9.76798 1.71129 9.60492C2.89553 9.24257 4.12012 9.05892 5.35294 9.05892H5.4147C6.62941 9.06468 7.83423 9.24916 8.99788 9.60657C9.52659 9.7688 9.88236 10.2456 9.88236 10.7925V11.7313H9.88235ZM3.29411 6.17575V5.35221C3.29411 4.2174 4.2173 3.2934 5.35294 3.2934C6.48859 3.2934 7.41177 4.2174 7.41177 5.35221V6.17575C7.41177 7.3114 6.48859 8.23457 5.35294 8.23457C4.2173 8.23457 3.29412 7.3114 3.29412 6.17575H3.29411ZM8.64706 0.822803C9.19553 0.822803 9.7127 1.03775 10.1022 1.42728C10.4909 1.8168 10.7059 2.33316 10.7059 2.88163V3.70516C10.7059 4.8408 9.7827 5.76398 8.64706 5.76398C8.50377 5.76398 8.36706 5.74504 8.2353 5.71704V5.35221C8.2353 4.21163 7.56412 3.23245 6.60059 2.76551C6.66153 1.68586 7.55177 0.822803 8.64706 0.822803ZM12.5325 6.35033C11.8662 6.14609 11.1868 5.99868 10.4926 5.90068C11.1209 5.37198 11.5294 4.58963 11.5294 3.70516V2.88162C11.5294 2.11327 11.2296 1.38938 10.6845 0.845028C10.1393 0.299852 9.41623 -0.000732422 8.64706 -0.000732422C7.18365 -0.000732422 5.98459 1.10032 5.80177 2.51597C5.65435 2.49209 5.50694 2.46985 5.35294 2.46985C3.76353 2.46985 2.47059 3.76361 2.47059 5.3522V6.17574C2.47059 7.0602 2.87906 7.84257 3.50823 8.37209C2.82059 8.46844 2.13623 8.61339 1.47 8.81761C0.591296 9.08776 0 9.88163 0 10.7925V12.1463L0.164704 12.2699C2.17165 13.7745 4.27577 13.9993 5.35294 13.9993C7.86306 13.9993 9.68141 12.9155 10.5412 12.2699L10.7059 12.1463V11.2676C12.2022 10.8987 13.2992 10.2028 13.8353 9.79928L14 9.67576V8.32516C14 7.41351 13.4095 6.61963 12.5325 6.35033Z" fill="white"/>
</g>
<defs>
<clipPath id="clip0_534_3">
<rect width="14" height="14" fill="white"/>
</clipPath>
</defs>
</svg>
